<?xml version="1.0" standalone="no"?>
<!DOCTYPE svg PUBLIC "-//W3C//DTD SVG 20010904//EN"
 "http://www.w3.org/TR/2001/REC-SVG-20010904/DTD/svg10.dtd">
<svg version="1.0" xmlns="http://www.w3.org/2000/svg"
 width="500.000000pt" height="500.000000pt" viewBox="0 0 500.000000 500.000000"
 preserveAspectRatio="xMidYMid meet">

<g transform="translate(0.000000,500.000000) scale(0.100000,-0.100000)"
fill="#000000" stroke="none">
<path d="M1220 3237 c0 -44 -22 -292 -26 -297 -3 -2 -56 47 -119 110 -63 63
-116 112 -119 110 -2 -3 15 -72 39 -155 23 -82 38 -151 34 -153 -4 -2 -69 26
-145 63 -76 36 -142 64 -146 63 -5 -2 34 -64 87 -137 52 -74 94 -135 92 -136
-1 -1 -58 4 -127 11 -148 15 -200 17 -200 7 0 -5 17 -19 38 -32 92 -59 223
-153 219 -158 -4 -4 -294 -83 -304 -83 -2 0 -3 -3 -3 -8 0 -4 70 -25 155 -47
85 -22 155 -42 155 -45 0 -4 -58 -46 -130 -95 -71 -48 -130 -92 -130 -98 0 -5
18 -7 43 -3 74 10 279 28 282 24 1 -2 -40 -63 -92 -136 -53 -73 -93 -135 -91
-137 3 -3 71 26 153 65 81 39 149 69 150 68 2 -2 -17 -73 -40 -158 -24 -85
-41 -157 -39 -159 3 -3 56 46 119 109 63 63 116 112 119 110 4 -5 26 -253 26
-296 0 -44 17 -24 60 71 l43 95 52 0 52 0 43 -95 c24 -52 46 -95 50 -95 4 0
11 43 15 95 l7 95 76 0 76 0 48 -47 c26 -26 50 -45 52 -42 3 3 0 24 -6 47 -6
24 -9 44 -7 46 5 4 1144 28 1414 30 l180 1 -3 -40 c-5 -59 -30 -105 -69 -123
-29 -14 -42 -14 -91 -4 -87 18 -135 15 -160 -8 -22 -20 -28 -53 -16 -84 19
-49 155 -84 256 -66 148 27 217 105 226 252 4 67 7 77 26 82 11 3 107 6 212 6
105 0 238 3 296 6 l104 7 100 531 c56 292 100 532 99 533 0 1 -70 -4 -155 -11
-85 -8 -157 -12 -159 -10 -2 2 35 43 83 93 47 49 90 101 96 116 17 44 12 84
-14 110 -21 21 -29 23 -56 15 -82 -23 -203 -150 -267 -278 -24 -49 -43 -74
-57 -77 -12 -2 -433 -38 -936 -80 -503 -42 -944 -79 -979 -82 l-65 -6 24 34
c13 19 53 74 88 122 35 49 61 91 58 94 -3 4 -69 -24 -146 -60 -77 -37 -144
-67 -148 -67 -5 0 10 69 34 152 23 84 40 155 38 157 -3 3 -56 -46 -119 -109
-63 -63 -116 -112 -118 -110 -4 5 -27 264 -27 304 0 40 -24 4 -85 -129 -35
-77 -67 -139 -71 -138 -3 1 -35 64 -70 140 -63 137 -84 167 -84 120z m2993
-31 c18 -53 -7 -101 -100 -195 -46 -47 -92 -99 -101 -116 -28 -51 -22 -161 17
-294 42 -144 40 -217 -8 -315 -49 -99 -128 -148 -301 -183 -174 -35 -210 -79
-210 -253 0 -169 -32 -240 -131 -291 -52 -27 -181 -37 -245 -20 -58 16 -94 46
-94 81 0 54 45 64 195 45 53 -6 63 -5 88 15 52 41 62 74 59 195 -3 132 9 181
55 235 47 54 111 85 251 121 70 18 131 40 154 55 84 59 99 163 48 349 -21 77
-30 133 -30 186 0 70 4 84 40 155 45 91 100 158 179 221 45 35 63 43 90 41 28
-2 36 -8 44 -32z m-755 -548 l3 -47 -28 14 c-47 25 -109 12 -96 -21 5 -12 15
-14 54 -9 l49 7 0 -30 c0 -29 -1 -30 -38 -25 -51 7 -67 -12 -53 -63 6 -21 9
-39 7 -41 -1 -1 -25 -4 -52 -5 l-49 -3 -9 123 c-4 68 -6 126 -2 129 8 8 122
21 171 19 l40 -1 3 -47z m-288 -23 c0 -43 -1 -45 -20 -35 -30 16 -95 9 -95
-10 0 -12 11 -14 48 -12 43 3 47 1 47 -20 0 -21 -4 -23 -38 -20 -27 3 -42 -1
-52 -13 -12 -15 -12 -19 5 -31 25 -18 72 -9 102 19 13 11 25 19 27 16 2 -2 7
-25 11 -51 8 -55 11 -54 -131 -64 -86 -5 -102 -4 -107 9 -5 13 -10 182 -8 234
1 13 40 19 144 21 l67 2 0 -45z m-263 -60 c17 -115 16 -164 -2 -171 -29 -12
-66 7 -96 49 -41 57 -55 55 -51 -9 l4 -52 -42 -7 c-31 -5 -45 -4 -51 6 -5 8
-9 66 -9 130 0 97 3 118 16 123 35 13 53 4 88 -44 46 -64 61 -65 52 -2 -3 27
-3 52 1 56 4 4 23 6 43 4 l35 -3 12 -80z m-345 -8 c32 -71 70 -179 65 -184 -2
-1 -24 -6 -49 -9 -45 -6 -46 -6 -53 25 -8 38 -25 47 -55 31 -15 -8 -20 -19
-18 -38 3 -26 1 -27 -48 -30 l-51 -3 9 62 c13 95 38 183 56 197 8 6 39 12 66
12 l51 -1 27 -62z m-398 -42 c-8 -87 1 -105 53 -105 24 0 41 8 59 27 13 14 26
24 28 22 2 -2 7 -29 10 -60 l7 -57 -83 -6 c-46 -4 -99 -9 -119 -12 -46 -7 -47
-3 -50 137 -2 124 0 129 64 129 l38 0 -7 -75z m-198 3 c15 -29 38 -84 50 -122
27 -78 24 -86 -38 -86 -33 0 -37 3 -43 31 -6 27 -10 30 -38 27 -28 -3 -32 -7
-32 -33 -1 -28 -4 -30 -45 -36 -25 -4 -48 -5 -51 -3 -9 5 9 123 31 196 22 72
25 74 102 77 36 1 39 -2 64 -51z m1204 -259 c0 -27 -43 -187 -58 -219 -14 -28
-23 -35 -47 -35 -28 0 -33 7 -78 96 -57 114 -64 153 -27 157 23 3 27 -3 48
-71 13 -41 30 -84 39 -97 l16 -23 13 26 c8 14 19 60 25 101 11 74 12 76 40 76
16 0 29 -5 29 -11z m-315 -56 c8 -38 8 -38 -35 -17 -44 23 -104 9 -108 -23 -3
-22 0 -23 57 -23 54 0 61 -2 61 -19 0 -17 -7 -19 -45 -18 -52 2 -81 -19 -70
-52 13 -42 107 -36 144 11 18 21 18 21 25 -22 4 -23 4 -45 2 -48 -9 -8 -207
-25 -214 -18 -10 10 -21 240 -12 250 10 10 172 25 181 16 4 -3 10 -20 14 -37z
m-317 -9 c54 -35 72 -162 29 -202 -30 -28 -77 -42 -144 -42 -61 0 -60 -2 -65
155 l-3 100 40 6 c53 9 115 2 143 -17z"/>
<path d="M2470 2531 c0 -11 -3 -26 -6 -35 -4 -10 0 -18 10 -22 24 -9 28 -1 21
40 -8 38 -25 50 -25 17z"/>
<path d="M1880 2485 c0 -11 -3 -30 -6 -42 -5 -19 -2 -23 16 -23 20 0 22 4 16
32 -8 39 -26 61 -26 33z"/>
<path d="M2421 2171 c-11 -7 -13 -24 -8 -77 4 -37 10 -71 15 -76 16 -16 86 7
101 33 36 65 -48 158 -108 120z"/>
</g>
</svg>
